<svg viewBox="0 0 500 500" xmlns="http://www.w3.org/2000/svg" xmlns:xlink="http://www.w3.org/1999/xlink"><clipPath id="a"><path d="m0 0h500v500h-500z"/></clipPath><g clip-path="url(#a)"><path d="m250 500a250.262 250.262 0 0 1 -212.351-118h134.431a159.931 159.931 0 0 0 23.425-1.524 90.857 90.857 0 0 0 20.734-5.422 71.541 71.541 0 0 0 18.25-10.6 78.583 78.583 0 0 0 8.258-7.638 94.02 94.02 0 0 0 7.715-9.411l-16.928-18.032a78.2 78.2 0 0 1 -13.2 12.892 62.387 62.387 0 0 1 -14.542 8.268c-9.642 3.891-20.824 5.7-35.19 5.7h-99.354a49.458 49.458 0 0 0 11.765-8.176 48.66 48.66 0 0 0 8.66-10.868 51.463 51.463 0 0 0 5.348-12.938 56.557 56.557 0 0 0 1.828-14.387v-115.176a52.933 52.933 0 0 1 3.967-20.413 48.721 48.721 0 0 1 10.936-16.2 49.722 49.722 0 0 1 16.456-10.684 56.7 56.7 0 0 1 40.3-.3 47.517 47.517 0 0 1 15.876 9.97 45.36 45.36 0 0 1 10.563 15.353 50.578 50.578 0 0 1 3.835 19.7 51.264 51.264 0 0 1 -6.256 24.518 47.928 47.928 0 0 1 -17.3 18.17l19.5 18.768c9.5-5.846 18.132-15.914 24.307-28.35-.013.739-.02 1.487-.02 2.222a102.336 102.336 0 0 0 1.219 16.065 82.471 82.471 0 0 0 3.841 15.031 74.7 74.7 0 0 0 6.739 13.927 78.335 78.335 0 0 0 9.913 12.754l20.607-18.4a47.3 47.3 0 0 1 -6.492-8.533 55.427 55.427 0 0 1 -4.594-9.775 63.189 63.189 0 0 1 -3.634-21.068 77.943 77.943 0 0 1 8.36-35.834 79.614 79.614 0 0 1 22.091-26.45 95.4 95.4 0 0 1 14.793-9.49 107.111 107.111 0 0 1 16.544-6.885 116.135 116.135 0 0 1 17.734-4.195 119.935 119.935 0 0 1 18.364-1.417 141.582 141.582 0 0 1 16.542.968 130.533 130.533 0 0 1 16.365 2.982 99.063 99.063 0 0 1 29.7 12.471 65.418 65.418 0 0 1 21.488 21.925c5.49 9.42 8.274 20.29 8.274 32.309a53.915 53.915 0 0 1 -7.251 27.767 58.216 58.216 0 0 1 -18.726 19.106 87.009 87.009 0 0 1 -25.708 11.034 110.107 110.107 0 0 1 -14.055 2.673 114.768 114.768 0 0 1 -14.1.875h-16.56v-94.946h-28.7v159.712a23.949 23.949 0 0 1 -4.232 14.168 15.608 15.608 0 0 1 -13.064 6.44 30.085 30.085 0 0 1 -11.638-2.576 25.5 25.5 0 0 1 -9.706-6.992v25.392a47.747 47.747 0 0 0 27.6 8.832 42.76 42.76 0 0 0 17.7-3.5 33.33 33.33 0 0 0 12.373-9.612c6.32-7.877 9.66-19 9.66-32.154v-40.11h18.4a45.578 45.578 0 0 1 16.5 2.772 36.54 36.54 0 0 1 12.293 7.809 56.3 56.3 0 0 1 9.4 12.087 134.645 134.645 0 0 1 7.809 15.606c4.454 10.512 9.906 22.5 18.262 31.693a51.372 51.372 0 0 0 6.733 6.231 43.28 43.28 0 0 0 17.363 8.046 51.921 51.921 0 0 0 11 1.134h.028a251.208 251.208 0 0 1 -88.732 83.222 248.875 248.875 0 0 1 -121.516 31.464zm216.848-140.448a25.183 25.183 0 0 1 -11.379-2.68 32.541 32.541 0 0 1 -9-6.888c-5.682-6.028-9.783-14.018-12.374-19.5a144.059 144.059 0 0 0 -7.682-14.122 84.054 84.054 0 0 0 -9.614-12.742 56.207 56.207 0 0 0 -12.1-9.982 46.763 46.763 0 0 0 -15.134-5.842 87.186 87.186 0 0 0 14.716-2.381 89.632 89.632 0 0 0 27.085-11.818 85.409 85.409 0 0 0 11.559-9.031 79.312 79.312 0 0 0 9.7-10.842 73 73 0 0 0 7.428-12.451 67.854 67.854 0 0 0 6.428-28.916 85.206 85.206 0 0 0 -35.512-70.886 120.024 120.024 0 0 0 -38.387-18.486 168.623 168.623 0 0 0 -46.8-6.308 151.536 151.536 0 0 0 -37.1 4.544 133.309 133.309 0 0 0 -33.356 13.279 112.812 112.812 0 0 0 -27.258 21.509 100.7 100.7 0 0 0 -18.832 29.215 77.223 77.223 0 0 0 -7.554-28.574 67.519 67.519 0 0 0 -16.763-21.581 73.732 73.732 0 0 0 -24.229-13.642 92.459 92.459 0 0 0 -29.953-4.757 90.935 90.935 0 0 0 -32.154 5.618 75.138 75.138 0 0 0 -25.53 15.864 71.5 71.5 0 0 0 -16.836 24.627 83.011 83.011 0 0 0 -6.072 31.907v114.08a49.467 49.467 0 0 1 -3.282 18.088 43.082 43.082 0 0 1 -9.363 14.546 45.513 45.513 0 0 1 -14.727 9.975 57.527 57.527 0 0 1 -19.373 4.381 248.694 248.694 0 0 1 -17.328-50.749 252.32 252.32 0 0 1 -.992-105.391 248.632 248.632 0 0 1 37.62-89.393 250.729 250.729 0 0 1 109.989-90.577 248.741 248.741 0 0 1 46.927-14.567 252.44 252.44 0 0 1 100.767 0 248.632 248.632 0 0 1 89.395 37.621 250.73 250.73 0 0 1 90.577 109.993 248.734 248.734 0 0 1 14.567 46.928 252.307 252.307 0 0 1 -1.376 107.076 248.622 248.622 0 0 1 -18.4 52.113 47.5 47.5 0 0 1 -8.298.742z" fill="#072b43"/></g></svg>