<svg xmlns="http://www.w3.org/2000/svg" xmlns:xlink="http://www.w3.org/1999/xlink" viewBox="0 0 500 500">
  <defs>
    <style>
      .cls-1 {
        clip-path: url(#clip-logo);
      }

      .cls-2 {
        fill: #072b43;
      }
    </style>
    <clipPath id="clip-logo">
      <rect width="500" height="500"/>
    </clipPath>
  </defs>
  <g id="logo" class="cls-1">
    <path id="Subtraction_1" data-name="Subtraction 1" class="cls-2" d="M250,500a251.849,251.849,0,0,1-50.384-5.079A248.63,248.63,0,0,1,110.223,457.3,250.73,250.73,0,0,1,19.646,347.311,248.744,248.744,0,0,1,5.079,300.384a252.44,252.44,0,0,1,0-100.767A248.632,248.632,0,0,1,42.7,110.223,250.729,250.729,0,0,1,152.689,19.646,248.741,248.741,0,0,1,199.616,5.079a252.44,252.44,0,0,1,100.767,0A248.632,248.632,0,0,1,389.778,42.7a250.73,250.73,0,0,1,90.577,109.993,248.734,248.734,0,0,1,14.567,46.928,252.44,252.44,0,0,1,0,100.767A248.63,248.63,0,0,1,457.3,389.778a250.732,250.732,0,0,1-109.993,90.577,248.736,248.736,0,0,1-46.928,14.567A251.846,251.846,0,0,1,250,500Zm0-231.009h0L357.859,376.851a11,11,0,0,0,15.556,0l2.121-2.121a11,11,0,0,0,0-15.556L267.677,251.314,375.536,143.455a11,11,0,0,0,0-15.556l-2.121-2.121a11,11,0,0,0-15.556,0L250,233.637,142.142,125.779a11,11,0,0,0-15.556,0l-2.121,2.121a11,11,0,0,0,0,15.556L232.322,251.314,124.464,359.173a11,11,0,0,0,0,15.556l2.121,2.121a11,11,0,0,0,15.556,0L250,268.992h0Z"/>
  </g>
</svg>
