<svg viewBox="0 0 500 500" xmlns="http://www.w3.org/2000/svg" xmlns:xlink="http://www.w3.org/1999/xlink"><clipPath id="a"><path d="m0 0h500v500h-500z"/></clipPath><g clip-path="url(#a)"><path d="m250 500a251.849 251.849 0 0 1 -50.384-5.079 248.63 248.63 0 0 1 -89.393-37.621 250.73 250.73 0 0 1 -90.577-109.989 248.744 248.744 0 0 1 -14.567-46.927 252.44 252.44 0 0 1 0-100.767 248.632 248.632 0 0 1 37.621-89.394 250.729 250.729 0 0 1 109.989-90.577 248.741 248.741 0 0 1 46.927-14.567 252.44 252.44 0 0 1 100.767 0 248.632 248.632 0 0 1 89.395 37.621 250.73 250.73 0 0 1 90.577 109.993 248.734 248.734 0 0 1 14.567 46.928 252.44 252.44 0 0 1 0 100.767 248.63 248.63 0 0 1 -37.622 89.39 250.732 250.732 0 0 1 -109.993 90.577 248.736 248.736 0 0 1 -46.928 14.567 251.846 251.846 0 0 1 -50.379 5.078zm-135-175a11 11 0 0 0 -11 11v3a11 11 0 0 0 11 11h270a11 11 0 0 0 11-11v-3a11 11 0 0 0 -11-11zm0-85a11 11 0 0 0 -11 11v3a11 11 0 0 0 11 11h270a11 11 0 0 0 11-11v-3a11 11 0 0 0 -11-11zm0-85a11 11 0 0 0 -11 11v3a11 11 0 0 0 11 11h270a11 11 0 0 0 11-11v-3a11 11 0 0 0 -11-11z" fill="#031c2e"/></g></svg>